<?xml version="1.0" standalone="no"?>
<!DOCTYPE svg PUBLIC "-//W3C//DTD SVG 1.1//EN" "http://www.w3.org/Graphics/SVG/1.1/DTD/svg11.dtd" >
<!--
2013-9-30: Created.
-->
<svg>
<metadata>
Created by iconfont
</metadata>
<defs>

<font id="iconfont" horiz-adv-x="1024" >
  <font-face
    font-family="iconfont"
    font-weight="500"
    font-stretch="normal"
    units-per-em="1024"
    ascent="896"
    descent="-128"
  />
    <missing-glyph />
    
    <glyph glyph-name="x" unicode="x" horiz-adv-x="1001"
d="M281 543q-27 -1 -53 -1h-83q-18 0 -36.5 -6t-32.5 -18.5t-23 -32t-9 -45.5v-76h912v41q0 16 -0.5 30t-0.5 18q0 13 -5 29t-17 29.5t-31.5 22.5t-49.5 9h-133v-97h-438v97zM955 310v-52q0 -23 0.5 -52t0.5 -58t-10.5 -47.5t-26 -30t-33 -16t-31.5 -4.5q-14 -1 -29.5 -0.5
t-29.5 0.5h-32l-45 128h-439l-44 -128h-29h-34q-20 0 -45 1q-25 0 -41 9.5t-25.5 23t-13.5 29.5t-4 30v167h911zM163 247q-12 0 -21 -8.5t-9 -21.5t9 -21.5t21 -8.5q13 0 22 8.5t9 21.5t-9 21.5t-22 8.5zM316 123q-8 -26 -14 -48q-5 -19 -10.5 -37t-7.5 -25t-3 -15t1 -14.5
t9.5 -10.5t21.5 -4h37h67h81h80h64h36q23 0 34 12t2 38q-5 13 -9.5 30.5t-9.5 34.5q-5 19 -11 39h-368zM336 498v228q0 11 2.5 23t10 21.5t20.5 15.5t34 6h188q31 0 51.5 -14.5t20.5 -52.5v-227h-327z" />
    

    
    <glyph glyph-name="shanchu-" unicode="&#58933;" d="M722.432 648.192v29.184c0 43.52-35.84 79.36-79.36 79.36H380.928c-43.52 0-79.36-35.84-79.36-79.36v-29.184H136.192v-35.84H250.88v-542.208c0-32.256 26.624-58.88 58.88-58.88h404.48c32.768 0 59.392 26.624 59.392 58.88V612.352h114.176v35.84h-165.376z m-385.024 29.184c0 24.064 19.456 43.52 43.52 43.52h262.144c24.064 0 43.52-19.456 43.52-43.52v-29.184H337.408v29.184z m400.384-607.232c0-12.8-10.752-23.04-23.552-23.04h-404.48c-12.8 0-23.04 10.24-23.04 23.04V612.352h451.072v-542.208zM436.224 534.528h35.84v-391.68h-35.84zM551.936 534.528h35.84v-391.68h-35.84z"  horiz-adv-x="1024" />

    
    <glyph glyph-name="jian-" unicode="&#58934;" d="M154.112 424.96H870.4v-81.92H154.112z"  horiz-adv-x="1024" />

    
    <glyph glyph-name="jia-" unicode="&#58936;" d="M870.4 424.96h-317.44V741.888H471.04V424.96H154.112v-81.92H471.04v-317.44h81.92v317.44h317.44z"  horiz-adv-x="1024" />

    
    <glyph glyph-name="daishouhuo-" unicode="&#58939;" d="M805.7 726.3H505c-65.7 0-119.7-51.5-123.6-116.2h-89.5c-33.4 0-64.6-15-85.4-41.2l-80.6-101.1c-20.2-25.3-31.3-57-31.3-89.3v-183.7c0-28.3 23-51.3 51.3-51.3h23.5c0.1 0 0.2 0.1 0.4 0.1 10.4-57.8 61-101.9 121.8-101.9s111.3 44 121.8 101.8h162.2c10.4-57.8 61-101.8 121.8-101.8 61 0 111.8 44.4 121.9 102.6 62.7 6.6 110.5 58.9 110.5 123V602.5c-0.3 68.3-55.8 123.8-124.1 123.8zM291.5 75.8c-49.4 0-89.7 40.2-89.7 89.7 0 49.4 40.2 89.7 89.7 89.7s89.7-40.2 89.7-89.7c-0.1-49.4-40.3-89.7-89.7-89.7z m89.6 174.8c-22.6 23.8-54.4 38.7-89.7 38.7-64.2 0-117.1-49.1-123.2-111.7h-22.5c-9.5 0-17.1 7.7-17.1 17.1V378.5c0 24.6 8.5 48.8 23.8 68.1L233 547.7c14.4 18 35.8 28.3 58.7 28.3H381v-325.4z m316.1-174.8c-49.4 0-89.7 40.2-89.7 89.7 0 49.4 40.2 89.7 89.7 89.7 49.4 0 89.7-40.2 89.7-89.7-0.1-49.4-40.3-89.7-89.7-89.7z m198.2 191.5c0-44-32.8-81-75.2-88.1-6.9 61.8-59.4 110.1-123 110.1-64.2 0-117.1-49.1-123.2-111.7H415.3V602.5c0 49.5 40.2 89.7 89.7 89.7h300.7c49.5 0 89.7-40.2 89.7-89.7v-335.2zM152.2 402.9c0-9.4 7.6-17.1 17.1-17.1h148.5c9.4 0 17.1 7.6 17.1 17.1V524.7c0 9.4-7.6 17.1-17.1 17.1-9.4 0-17.1-7.6-17.1-17.1V420H169.3c-9.4 0-17.1-7.7-17.1-17.1z"  horiz-adv-x="1024" />

    
    <glyph glyph-name="daifukuan-" unicode="&#58940;" d="M817.2 663.2H206.8c-47.1 0-85.4-38.3-85.4-85.4v-387.7c0-47.1 38.3-85.4 85.4-85.4h610.4c47.1 0 85.4 38.3 85.4 85.4V577.9c0 47-38.3 85.3-85.4 85.3z m51.2-473c0-28.2-23-51.2-51.2-51.2H206.8c-28.2 0-51.2 23-51.2 51.2V361.7h712.9v-171.5z m0 205.6H155.6V508.4h712.9v-112.6z m0 146.7H155.6v35.3c0 28.2 23 51.2 51.2 51.2h610.4c28.2 0 51.2-23 51.2-51.2v-35.3zM473 253.6h78c9.4 0 17.1 7.6 17.1 17.1s-7.6 17.1-17.1 17.1h-78c-9.4 0-17.1-7.6-17.1-17.1s7.6-17.1 17.1-17.1zM336.4 253.6h78c9.4 0 17.1 7.6 17.1 17.1s-7.6 17.1-17.1 17.1h-78c-9.4 0-17.1-7.6-17.1-17.1s7.6-17.1 17.1-17.1zM199.8 253.6h78c9.4 0 17.1 7.6 17.1 17.1s-7.6 17.1-17.1 17.1h-78c-9.4 0-17.1-7.6-17.1-17.1s7.6-17.1 17.1-17.1z"  horiz-adv-x="1024" />

    
    <glyph glyph-name="daifahuo-" unicode="&#58941;" d="M748.2 713.8l-146.2-0.1c-0.8 0.1-1.7 0.2-2.6 0.1H275.8c-72 0-130.6-58-130.6-129.4v-400.9c0-71.3 58.6-129.4 130.6-129.4h472.4c72.1 0 130.7 58 130.7 129.4V584.4c-0.1 71.4-58.7 129.4-130.7 129.4z m-292.6-34.2h112.8v-329.5l-40.3 23.6c-2.4 1.4-4.4 2-4.1 1.7-1.3 0.5-3.5 1.4-5.9 1.9-4 0.8-8.2 0.8-12 0.1-2.7-0.5-4.8-1.4-4.7-1.4-1.5-0.4-4.1-1.4-5.4-2.2l-40.4-23.6V679.6z m-276.3-95.2c0 52.5 43.3 95.2 96.5 95.2h145.6v-179.4H179.3v84.2z m665.4-400.8c0-52.5-43.3-95.2-96.5-95.2H275.8c-53.2 0-96.5 42.7-96.5 95.2V466.1h242.1v-135.6c0-8.2 4.4-15.8 11.5-19.8 7.1-4.1 15.9-4.1 22.9 0.1l55.9 32.6c0.2 0.1 0.3 0.1 0.5 0l55.9-32.7c7.1-4.1 15.9-4.1 22.9-0.1 7.1 4.1 11.5 11.7 11.5 19.8V466.1h242.2v-282.5z m0 316.7H602.5V679.6h145.6c53.2 0 96.5-42.7 96.5-95.2v-84.1z"  horiz-adv-x="1024" />

    
    <glyph glyph-name="daituikuan-" unicode="&#58942;" d="M869.8 448.7c-1.7 9.3-10.5 15.4-19.8 13.8-9.3-1.7-15.5-10.5-13.8-19.8 3.5-19.2 5.2-39 5.2-58.6 0-181.6-147.8-329.4-329.4-329.4S182.6 202.4 182.6 384 330.4 713.4 512 713.4c101.8 0 195.8-46.1 258-124.8l-52.4 7.9c-9.4 1.2-18-5.1-19.4-14.4-1.4-9.3 5-18 14.4-19.4l92.1-13.8c0.9-0.1 1.7-0.2 2.5-0.2 3.6 0 7.2 1.2 10.2 3.4 3.6 2.7 6.1 6.7 6.7 11.2l13.3 88.9c1.4 9.3-5 18-14.4 19.4-9.5 1.2-18-5-19.4-14.4l-7-47C727.9 696.8 624.2 747.5 512 747.5c-200.5 0-363.6-163.1-363.6-363.5 0-200.5 163.1-363.6 363.6-363.6 200.5 0 363.5 163.1 363.5 363.6 0 21.7-1.9 43.4-5.7 64.7zM648 371.1c9.4 0 17.1 7.6 17.1 17.1 0 9.4-7.6 17.1-17.1 17.1H546.2l90.7 139.2c5.2 7.9 2.9 18.5-5 23.6-7.9 5.1-18.5 2.9-23.6-5l-96-147.4-92.6 147.1c-5 8-15.5 10.3-23.6 5.4-8-5-10.4-15.6-5.4-23.6l87.8-139.4H376c-9.4 0-17.1-7.6-17.1-17.1 0-9.4 7.6-17.1 17.1-17.1h118.9v-37.9H376c-9.4 0-17.1-7.6-17.1-17.1 0-9.4 7.6-17.1 17.1-17.1h118.9v-87.8c0-9.4 7.6-17.1 17.1-17.1 9.4 0 17.1 7.6 17.1 17.1v87.8H648c9.4 0 17.1 7.6 17.1 17.1 0 9.4-7.6 17.1-17.1 17.1H529.1V371H648z"  horiz-adv-x="1024" />

    
    <glyph glyph-name="liebiao-1" unicode="&#58944;" d="M396.1 367.6H163.7c-55.1 0-99.9-44.8-99.9-99.9v-212.5c0-55 43.6-119 99.9-119h232.4c55.1 0 99.9 44.8 99.9 99.9V267.7c0.1 55.1-44.8 99.9-99.9 99.9z m49.8-331.5c0-27.4-22.3-49.8-49.8-49.8H163.7c-25.2 0-49.8 39.4-49.8 68.8V267.7c0 27.4 22.3 49.7 49.8 49.7h232.4c27.4 0 49.8-22.3 49.8-49.7v-231.6zM860.3 831.8H627.9c-55.1 0-99.9-44.8-99.9-99.9v-212.5c0-55 43.6-119 99.9-119h232.4c55.1 0 99.9 44.8 99.9 99.9V731.8c0 55.1-44.8 100-99.9 100zM910 500.3c0-27.4-22.3-49.8-49.7-49.8H627.9c-25.2 0-49.7 39.4-49.7 68.9V731.8c0 27.4 22.3 49.8 49.7 49.8h232.4c27.4 0 49.7-22.3 49.7-49.8v-231.5zM860.3 367.6H627.9c-55.1 0-99.9-44.8-99.9-99.9v-212.5c0-55 43.6-119 99.9-119h232.4c55.1 0 99.9 44.8 99.9 99.9V267.7c0 55.1-44.8 99.9-99.9 99.9zM910 36.1c0-27.4-22.3-49.7-49.7-49.7H627.9c-25.2 0-49.7 39.4-49.7 68.8V267.7c0 27.4 22.3 49.7 49.7 49.7h232.4c27.4 0 49.7-22.3 49.7-49.7v-231.6zM396.1 831.8H163.7c-55.1 0-99.9-44.8-99.9-99.9v-212.5c0-55 43.6-119 99.9-119h232.4c55.1 0 99.9 44.8 99.9 99.9V731.8c0.1 55.1-44.8 100-99.9 100z m49.8-331.5c0-27.4-22.3-49.8-49.8-49.8H163.7c-25.2 0-49.8 39.4-49.8 68.9V731.8c0 27.4 22.3 49.8 49.8 49.8h232.4c27.4 0 49.8-22.3 49.8-49.8v-231.5z"  horiz-adv-x="1024" />

    
    <glyph glyph-name="liebiao-_fuzhi" unicode="&#58945;" d="M353.28 314.88h-229.888c-35.328 0-63.488-28.672-63.488-63.488v-229.888c0-34.816 28.672-63.488 63.488-63.488h229.888c35.328 0 63.488 28.672 63.488 63.488v229.376c0.512 35.328-28.16 64-63.488 64zM366.592 21.504c0-7.168-5.632-12.8-12.8-12.8h-230.4c-7.168 0-12.8 5.632-12.8 12.8v229.376c0 7.168 5.632 12.8 12.8 12.8h229.888c7.168 0 12.8-5.632 12.8-12.8v-229.376zM353.28 810.496h-229.888c-35.328 0-63.488-28.672-63.488-63.488v-229.888c0-35.328 28.672-63.488 63.488-63.488h229.888c35.328 0 63.488 28.672 63.488 63.488v229.376c0.512 35.328-28.16 64-63.488 64zM366.592 516.608c0-7.168-5.632-12.8-12.8-12.8h-230.4c-7.168 0-12.8 5.632-12.8 12.8v229.888c0 7.168 5.632 12.8 12.8 12.8h229.888c7.168 0 12.8-5.632 12.8-12.8v-229.888zM517.12 708.608h421.376c13.824 0 25.088 11.264 25.088 25.088s-11.264 25.088-25.088 25.088h-421.376c-13.824 0-25.088-11.264-25.088-25.088s11.264-25.088 25.088-25.088zM938.496 567.296h-421.376c-13.824 0-25.088-11.264-25.088-25.088s11.264-25.088 25.088-25.088h421.376c13.824 0 25.088 11.264 25.088 25.088s-10.752 25.088-25.088 25.088zM938.496 250.88h-421.376c-13.824 0-25.088-11.264-25.088-25.088s11.264-25.088 25.088-25.088h421.376c13.824 0 25.088 11.264 25.088 25.088s-10.752 25.088-25.088 25.088zM938.496 59.392h-421.376c-13.824 0-25.088-11.264-25.088-25.088s11.264-25.088 25.088-25.088h421.376c13.824 0 25.088 11.264 25.088 25.088s-10.752 25.088-25.088 25.088z"  horiz-adv-x="1024" />

    
    <glyph glyph-name="xiala-" unicode="&#58995;" d="M772.2 521.9c-8.7 8.7-22.7 8.7-31.3 0L512 293 283.1 521.9c-8.7 8.7-22.7 8.7-31.3 0-8.7-8.7-8.7-22.7 0-31.3L496.4 246c4.3-4.3 10-6.5 15.7-6.5 5.7 0 11.3 2.2 15.7 6.5l244.6 244.6c8.5 8.7 8.5 22.7-0.2 31.3z"  horiz-adv-x="1024" />

    
    <glyph glyph-name="sousuo-" unicode="&#59000;" d="M478.7 661.9c-57 15.3-116.5 7.4-167.5-22.1-7.1-4.1-9.6-13.2-5.4-20.3 4.1-7.1 13.2-9.6 20.3-5.5 44.2 25.5 95.7 32.3 144.9 19.1 49.3-13.2 90.5-44.8 116-89 2.8-4.8 7.8-7.4 12.9-7.4 2.5 0 5.1 0.6 7.4 2 7.1 4.1 9.6 13.2 5.4 20.3-29.4 51.1-77 87.7-134 102.9zM921.8-4.7L704.6 212.4c57.2 62.3 92.2 145.2 92.2 236.2 0 192.7-156.8 349.5-349.5 349.5S97.8 641.3 97.8 448.6s156.8-349.5 349.5-349.5c91 0 174 35 236.2 92.2l217.2-217.2c2.9-2.9 6.7-4.4 10.5-4.4s7.6 1.5 10.5 4.4c5.9 5.9 5.9 15.4 0.1 21.2zM447.3 128.9c-176.3 0-319.7 143.4-319.7 319.7S271 768.3 447.3 768.3c176.3 0 319.7-143.4 319.7-319.7S623.6 128.9 447.3 128.9z"  horiz-adv-x="1024" />

    
    <glyph glyph-name="wode-" unicode="&#59005;" d="M640.9 349c67.2 43 108.8 117.4 108.8 199 0 130.4-106.1 236.6-236.6 236.6S276.5 678.5 276.5 548c0-82.8 42.5-157.7 111.1-200.4-131.4-51.6-220.1-175.1-220.1-313 0-11.8 0.7-24.1 2.1-36.4 0.9-8.5 8.1-14.9 16.7-14.9H838c8.6 0 15.8 6.5 16.7 15 1.2 11.5 1.8 23.2 1.8 34.9 0 140.9-86.9 265.5-215.6 315.8z"  horiz-adv-x="1024" />

    
    <glyph glyph-name="shouye-" unicode="&#59006;" d="M817.1 311.3c-4.4 3.2-10.1 4-15.2 2.2-37.9-12.9-79.5-1.4-105.4 27.2-3.2 3.5-7.7 5.5-12.4 5.5s-9.2-2-12.4-5.5c-18.7-20.5-45.3-32.3-73.1-32.3-27.9 0-54.6 11.8-73.2 32.4-3.2 3.5-7.7 5.5-12.4 5.5s-9.2-2-12.4-5.5c-18.7-20.6-45.4-32.4-73.2-32.4-27.8 0-54.4 11.8-73.1 32.3-3.2 3.5-7.7 5.5-12.4 5.5s-9.2-2-12.4-5.5c-26.2-29-68.7-40.3-107-26.6-5.1 1.9-10.9 1.1-15.3-2-4.5-3.1-7.1-8.3-7.1-13.7v-300.9c0-4.5 1.8-8.7 4.9-11.9s7.4-4.9 11.9-4.9h590.6c9.3 0 16.8 7.5 16.8 16.8V297.6c-0.2 5.4-2.8 10.5-7.2 13.7zM889.8 553.1L766 778.7c-2.9 5.4-8.6 8.7-14.7 8.7H269.2c-6.2 0-11.9-3.4-14.8-8.9l-120-225.1c-11.5-19.2-17.6-41-17.6-63.1 0-68.1 55.5-123.5 123.7-123.5 35 0 67.5 14.5 90.7 39.7 23.2-25 55.6-39.4 90.3-39.4 34.8 0 67.3 14.4 90.5 39.5 23.2-25.1 55.7-39.5 90.5-39.5 34.7 0 67.1 14.4 90.3 39.4 23.2-25.2 55.7-39.7 90.7-39.7 68.2 0 123.7 55.4 123.7 123.5 0.1 22-6 43.7-17.4 62.8z"  horiz-adv-x="1024" />

    
    <glyph glyph-name="quanbu-" unicode="&#59007;" d="M936.5 538.1c-3.2 3.8-7.9 5.9-12.8 5.9l-823.4-0.2c-4.9 0-9.6-2.2-12.8-5.9-3.2-3.8-4.6-8.8-3.7-13.6L181-49.6c1.4-8.1 8.4-14 16.5-14h629.1c8.2 0 15.2 5.9 16.5 14l97.1 574.1c0.9 4.9-0.5 9.9-3.7 13.6zM812.4-30H211.6l-91.5 540.4 783.7 0.2L812.4-30zM267.9 569.3c9.3 0 16.8 7.5 16.8 16.8C284.7 702.9 386.6 798 512 798s227.3-95.1 227.3-211.9c0-9.3 7.5-16.8 16.8-16.8s16.8 7.5 16.8 16.8c0 135.3-117 245.4-260.9 245.4-143.8 0-260.9-110.1-260.9-245.4 0-9.3 7.5-16.8 16.8-16.8zM321.7 347.8m-51.4 0a51.4 51.4 0 1 1 102.8 0 51.4 51.4 0 1 1-102.8 0ZM704.7 347.8m-51.4 0a51.4 51.4 0 1 1 102.8 0 51.4 51.4 0 1 1-102.8 0Z"  horiz-adv-x="1024" />

    
    <glyph glyph-name="gouwuche-" unicode="&#59008;" d="M958.8 665.8c-3.1 4.6-8.3 7.4-13.9 7.4l-718.5 0.2-16.8 84.8c-1.5 7.8-8.3 13.4-16.2 13.5l-114.1 1.5c-9.9 0.3-16.9-7.3-17-16.6-0.1-9.3 7.3-16.9 16.6-17l100.5-1.3 101.8-514c1.6-7.9 8.4-13.5 16.5-13.5h499.9c9.3 0 16.8 7.5 16.8 16.8s-7.5 16.8-16.8 16.8H311.4l-8.9 45h500.2c6.8 0 13 4.1 15.5 10.5l142.2 350.3c2.2 5 1.5 10.9-1.6 15.6z m-167.4-343H295.8l-62.8 317 687-0.2-128.6-316.8zM371.7 181c-51.3 0-93.1-41.7-93.1-93.1s41.8-93.1 93.1-93.1 93.1 41.7 93.1 93.1S423 181 371.7 181z m0-152.6c-32.8 0-59.5 26.7-59.5 59.5s26.7 59.5 59.5 59.5 59.5-26.7 59.5-59.5-26.7-59.5-59.5-59.5zM713.4 181c-51.3 0-93.1-41.7-93.1-93.1s41.8-93.1 93.1-93.1 93.1 41.7 93.1 93.1-41.8 93.1-93.1 93.1z m0-152.6c-32.8 0-59.5 26.7-59.5 59.5s26.7 59.5 59.5 59.5 59.5-26.7 59.5-59.5-26.7-59.5-59.5-59.5z"  horiz-adv-x="1024" />

    
    <glyph glyph-name="shouye-1" unicode="&#59009;" d="M817.1 311.3c-4.4 3.1-10.1 4-15.2 2.2-37.7-12.8-79.5-1.4-105.4 27.2-3.2 3.5-7.7 5.5-12.4 5.5s-9.2-2-12.4-5.5c-18.7-20.5-45.3-32.3-73.1-32.3-27.9 0-54.6 11.8-73.2 32.4-3.2 3.5-7.7 5.5-12.4 5.5s-9.2-2-12.4-5.5c-18.7-20.6-45.4-32.4-73.2-32.4-27.8 0-54.4 11.8-73.1 32.3-3.2 3.5-7.7 5.5-12.4 5.5s-9.2-2-12.4-5.5c-26.2-29-69-40.3-107-26.6-5.1 1.9-10.9 1.1-15.3-2-4.5-3.1-7.1-8.3-7.1-13.7v-300.9c0-4.5 1.8-8.7 4.9-11.9 3.1-3.1 7.4-4.9 11.9-4.9h590.6c9.3 0 16.8 7.5 16.8 16.8V297.6c-0.2 5.4-2.8 10.5-7.2 13.7zM889.8 553.1L766 778.7c-2.9 5.4-8.6 8.7-14.7 8.7H269.2c-6.2 0-11.9-3.4-14.8-8.9l-120-225.1c-11.5-19.2-17.6-41-17.6-63.1 0-68.1 55.5-123.5 123.7-123.5 35 0 67.5 14.5 90.7 39.7 23.2-25 55.6-39.4 90.3-39.4 34.8 0 67.3 14.4 90.5 39.5 23.2-25.1 55.7-39.5 90.5-39.5 34.7 0 67.1 14.4 90.3 39.4 23.2-25.2 55.7-39.7 90.7-39.7 68.2 0 123.7 55.4 123.7 123.5 0.1 22-6 43.7-17.4 62.8z m-134.9-24.8c-8.1-4.5-18.3-1.6-22.8 6.5l-76.4 137c-4.5 8.1-1.6 18.3 6.5 22.8s18.3 1.6 22.8-6.5l76.4-137c4.5-8.1 1.6-18.3-6.5-22.8z m-242.9 0c-9.3 0-16.8 7.5-16.8 16.8l-0.1 132.8c0 9.3 7.5 16.8 16.8 16.8s16.8-7.5 16.8-16.8l0.1-132.8c0-9.3-7.5-16.8-16.8-16.8z m-220.1 6.5c-4.5-8.1-14.7-11-22.8-6.5-8.1 4.5-11 14.7-6.5 22.8l76.4 137c4.5 8.1 14.7 11 22.8 6.5 8.1-4.5 11-14.7 6.5-22.8l-76.4-137z"  horiz-adv-x="1024" />

    
    <glyph glyph-name="wode-1" unicode="&#59010;" d="M640.9 349c67.2 43 108.8 117.5 108.8 199 0 130.4-106.1 236.6-236.6 236.6S276.5 678.5 276.5 548c0-82.7 42.5-157.6 111.1-200.4-131.4-51.5-220.1-175.1-220.1-313 0-11.8 0.7-24.1 2.1-36.4 0.9-8.5 8.1-14.9 16.7-14.9H838c8.6 0 15.8 6.5 16.7 15 1.2 11.5 1.8 23.2 1.8 34.9 0 140.9-86.9 265.5-215.6 315.8zM423.1 496.4H601c-7.9-41.9-44.8-73.7-88.9-73.7s-81.1 31.7-89 73.7z"  horiz-adv-x="1024" />

    
    <glyph glyph-name="gouwuche-1" unicode="&#59011;" d="M371.7 181.8c-51.3 0-93.1-41.7-93.1-93.1 0-51.3 41.8-93.1 93.1-93.1s93.1 41.7 93.1 93.1c-0.1 51.4-41.8 93.1-93.1 93.1zM713.4 181.8c-51.3 0-93.1-41.7-93.1-93.1 0-51.3 41.8-93.1 93.1-93.1s93.1 41.7 93.1 93.1c0 51.4-41.8 93.1-93.1 93.1zM958.8 665c-3.1 4.6-8.3 7.4-13.9 7.4l-718.5 0.2-16.8 84.8c-1.5 7.8-8.3 13.4-16.2 13.5l-114.1 1.5c-8.7-0.5-16.9-7.3-17-16.6-0.1-9.3 7.3-16.9 16.6-17l100.5-1.3 101.8-514c1.6-7.9 8.4-13.5 16.5-13.5h499.9c9.3 0 16.8 7.5 16.8 16.8s-7.5 16.8-16.8 16.8H311.4l-8.9 45h500.2c6.8 0 13 4.1 15.5 10.5l142.2 350.3c2.2 5.1 1.5 10.9-1.6 15.6zM749.1 550.3l-89.4-128.9c-5.3-7.6-15.7-9.5-23.3-4.2-7.6 5.3-9.5 15.7-4.2 23.3l89.4 128.9c5.3 7.6 15.7 9.5 23.3 4.2 7.6-5.3 9.5-15.7 4.2-23.3z m-218-29.7l-89.4-128.9c-5.3-7.6-15.7-9.5-23.3-4.2-7.6 5.3-9.5 15.7-4.2 23.3l89.4 128.9c5.3 7.6 15.7 9.5 23.3 4.2 7.6-5.3 9.5-15.7 4.2-23.3z"  horiz-adv-x="1024" />

    
    <glyph glyph-name="quanbu-1" unicode="&#59012;" d="M267.9 569.3c9.3 0 16.8 7.5 16.8 16.8C284.7 703 386.7 798 512 798c125.4 0 227.3-95.1 227.3-211.9 0-9.3 7.5-16.8 16.8-16.8s16.8 7.5 16.8 16.8c0 135.3-117 245.4-260.9 245.4-143.8 0-260.9-110.1-260.9-245.4 0-9.3 7.5-16.8 16.8-16.8zM936.6 538.8c-3.2 3.8-7.9 5.9-12.8 5.9H100.2c-4.9 0-9.6-2.2-12.8-5.9-3.2-3.8-4.6-8.8-3.7-13.6L181-49.6c1.4-8.1 8.4-14 16.5-14h629.1c8.2 0 15.2 5.9 16.5 14l97.3 574.8c0.8 4.9-0.6 9.9-3.8 13.6z m-666.4-191c0 28.4 23 51.4 51.4 51.4s51.4-23 51.4-51.4-23-51.4-51.4-51.4c-28.3-0.1-51.4 23-51.4 51.4z m163.9-174.6c8.6 3.4 18.4-0.8 21.8-9.3 7.9-19.8 26.8-40.9 56.1-40.9s48.2 21.1 56.1 40.9c3.4 8.6 13.2 12.8 21.8 9.3 8.6-3.4 12.8-13.2 9.3-21.8-12-29.9-41.2-61.9-87.2-61.9s-75.2 32-87.2 61.9c-3.5 8.6 0.7 18.4 9.3 21.8z m270.6 123.1c-28.4 0-51.4 23-51.4 51.4s23 51.4 51.4 51.4 51.4-23 51.4-51.4-23-51.4-51.4-51.4z"  horiz-adv-x="1024" />

    
    <glyph glyph-name="gouwuche-2" unicode="&#59013;" d="M958.8 664.9c-3.1 4.6-8.3 7.4-13.9 7.4l-718.5 0.2-16.8 84.8c-1.5 7.8-8.3 13.4-16.2 13.5l-114.1 1.5h-0.2c-9.2 0-16.6-7.4-16.8-16.6-0.1-9.3 7.3-16.9 16.6-17l100.5-1.3 101.8-514c1.6-7.9 8.4-13.5 16.5-13.5h499.9c9.3 0 16.8 7.5 16.8 16.8s-7.5 16.8-16.8 16.8H311.4l-8.9 45h500.2c6.8 0 13 4.1 15.5 10.5l142.2 350.3c2.2 5.1 1.5 11-1.6 15.6zM371.7 181.8c-51.3 0-93.1-41.7-93.1-93.1 0-51.3 41.8-93.1 93.1-93.1s93.1 41.7 93.1 93.1c-0.1 51.4-41.8 93.1-93.1 93.1zM713.4 181.8c-51.3 0-93.1-41.7-93.1-93.1 0-51.3 41.8-93.1 93.1-93.1s93.1 41.7 93.1 93.1c0 51.4-41.8 93.1-93.1 93.1z"  horiz-adv-x="1024" />

    
    <glyph glyph-name="quanbu-2" unicode="&#59014;" d="M267.9 569.3c9.3 0 16.8 7.5 16.8 16.8C284.7 702.9 386.7 798 512 798c125.4 0 227.3-95.1 227.3-211.9 0-9.3 7.5-16.8 16.8-16.8s16.8 7.5 16.8 16.8c0 135.3-117 245.4-260.9 245.4-143.8 0-260.9-110.1-260.9-245.4 0-9.3 7.5-16.8 16.8-16.8zM936.6 538.8c-3.2 3.8-7.9 5.9-12.8 5.9H100.2c-4.9 0-9.6-2.2-12.8-5.9-3.2-3.8-4.6-8.8-3.7-13.6L181-49.6c1.4-8.1 8.4-14 16.5-14h629.1c8.2 0 15.2 5.9 16.5 14l97.3 574.8c0.8 4.9-0.6 9.9-3.8 13.6z m-666.4-191c0 28.4 23 51.4 51.4 51.4s51.4-23 51.4-51.4-23-51.4-51.4-51.4c-28.3-0.1-51.4 23-51.4 51.4z m434.5-51.5c-28.4 0-51.4 23-51.4 51.4s23 51.4 51.4 51.4 51.4-23 51.4-51.4-23-51.4-51.4-51.4z"  horiz-adv-x="1024" />

    
    <glyph glyph-name="fenlei-" unicode="&#59015;" d="M886.6 775.3H562.3c-9.3 0-16.8-7.5-16.8-16.8v-324.2c0-9.3 7.5-16.8 16.8-16.8h324.3c9.3 0 16.8 7.5 16.8 16.8V758.6c-0.1 9.2-7.6 16.7-16.8 16.7zM461.7 775.3H137.4c-9.3 0-16.8-7.5-16.8-16.8v-324.2c0-9.3 7.5-16.8 16.8-16.8h324.2c9.3 0 16.8 7.5 16.8 16.8V758.6c0.1 9.2-7.5 16.7-16.7 16.7zM886.6 350.5H562.3c-9.3 0-16.8-7.5-16.8-16.8v-324.3c0-9.3 7.5-16.8 16.8-16.8h324.3c9.3 0 16.8 7.5 16.8 16.8V333.7c-0.1 9.3-7.6 16.8-16.8 16.8zM461.7 350.5H137.4c-9.3 0-16.8-7.5-16.8-16.8v-324.3c0-9.3 7.5-16.8 16.8-16.8h324.2c9.3 0 16.8 7.5 16.8 16.8V333.7c0.1 9.3-7.5 16.8-16.7 16.8z"  horiz-adv-x="1024" />

    
    <glyph glyph-name="shouye-2" unicode="&#59016;" d="M815.8 355.3c-9.3 0-16.8-7.5-16.8-16.8v-335.4H222.9V336.7c0 9.3-7.5 16.8-16.8 16.8s-16.8-7.5-16.8-16.8v-350.4c0-9.3 7.5-16.8 16.8-16.8h609.8c9.3 0 16.8 7.5 16.8 16.8V338.5c-0.1 9.3-7.6 16.8-16.9 16.8zM900.3 557.6L772.9 789.7c-2.9 5.4-8.6 8.7-14.7 8.7H262.1c-6.2 0-11.9-3.4-14.8-8.9L123.8 557.9c-11.8-19.7-18.1-42.1-18.1-64.7 0-69.8 56.9-126.6 126.8-126.6 36 0 69.5 15 93.3 41.1 23.8-25.8 57.2-40.7 92.9-40.7 35.9 0 69.3 15 93.1 40.9C535.6 382 569 367 604.9 367c35.8 0 69.1 14.9 92.9 40.7 23.8-26.1 57.3-41.1 93.3-41.1 69.9 0 126.8 56.8 126.8 126.6 0.3 22.6-5.9 44.8-17.6 64.4zM791.4 400.1c-32.3 0-61.8 16.4-79.1 44-3.1 4.9-8.4 7.8-14.2 7.9-5.7 0-11.1-2.9-14.2-7.8-17.3-27.3-46.8-43.7-78.8-43.7-32.2 0-61.7 16.4-78.9 43.8-3.1 4.9-8.4 7.8-14.2 7.8-5.8 0-11.1-3-14.2-7.8-17.3-27.5-46.8-43.8-78.9-43.8-32.1 0-61.5 16.3-78.8 43.7-3.1 4.9-8.4 7.8-14.2 7.8-5.8 0-11.1-3-14.2-7.9-17.2-27.5-46.8-44-79.1-44-51.4 0-93.3 41.7-93.3 93.1 0 16.6 4.6 33 13.7 48.2l119.2 223.5h476.1l122.8-223.7 0.3-0.6c8.7-14.5 13.3-30.9 13.3-47.4 0-51.3-41.9-93.1-93.3-93.1z"  horiz-adv-x="1024" />

    
    <glyph glyph-name="fenlei-1" unicode="&#59017;" d="M886.6 775.3H562.3c-9.3 0-16.8-7.5-16.8-16.8v-324.2c0-9.3 7.5-16.8 16.8-16.8h324.3c9.3 0 16.8 7.5 16.8 16.8V758.6c-0.1 9.2-7.6 16.7-16.8 16.7zM461.7 775.3H137.4c-9.3 0-16.8-7.5-16.8-16.8v-324.2c0-9.3 7.5-16.8 16.8-16.8h324.2c9.3 0 16.8 7.5 16.8 16.8V758.6c0.1 9.2-7.5 16.7-16.7 16.7zM461.7 350.5H137.4c-9.3 0-16.8-7.5-16.8-16.8v-324.2c0-9.3 7.5-16.8 16.8-16.8h324.2c9.3 0 16.8 7.5 16.8 16.8V333.7c0.1 9.3-7.5 16.8-16.7 16.8zM886.6 350.5H562.3c-9.3 0-16.8-7.5-16.8-16.8v-324.3c0-9.3 7.5-16.8 16.8-16.8h324.3c9.3 0 16.8 7.5 16.8 16.8V333.7c-0.1 9.3-7.6 16.8-16.8 16.8zM631.1 171.6l93.4 93.4 93.4-93.4-93.4-93.4-93.4 93.4z"  horiz-adv-x="1024" />

    
    <glyph glyph-name="wode-2" unicode="&#59018;" d="M640.9 349c67.2 43 108.8 117.4 108.8 199 0 130.4-106.1 236.6-236.6 236.6S276.5 678.5 276.5 548c0-82.8 42.5-157.7 111.1-200.4-131.4-51.5-220.1-175.1-220.1-313 0-11.8 0.7-24.1 2.1-36.4 0.9-8.5 8.1-14.9 16.7-14.9H838c8.6 0 15.8 6.5 16.7 15 1.2 11.5 1.8 23.2 1.8 34.9 0 140.9-86.9 265.5-215.6 315.8z m181.6-332.1H201.6c-0.4 6-0.6 12-0.6 17.8 0 136 96.4 256.6 234.4 293.4 7 1.9 12 8 12.4 15.2 0.4 7.2-3.8 13.9-10.5 16.6C360 391.1 310.1 465 310.1 548.1c0 111.9 91.1 203 203 203s203-91.1 203-203c0-82-49-155.5-124.7-187.3-6.6-2.8-10.8-9.5-10.2-16.7 0.5-7.2 5.6-13.2 12.5-15 135-34.9 229.2-156.6 229.2-295.8 0-5.5-0.1-10.9-0.4-16.4z"  horiz-adv-x="1024" />

    
    <glyph glyph-name="fenlei-2" unicode="&#59019;" d="M863.8 417.5H585.1c-21.8 0-39.5 17.7-39.5 39.5V735.8c0 21.8 17.7 39.5 39.5 39.5h278.7c21.8 0 39.5-17.7 39.5-39.5v-278.7c0-21.8-17.7-39.6-39.5-39.6zM585.1 741.8c-3.3 0-6-2.7-6-6v-278.7c0-3.3 2.7-6 6-6h278.7c3.3 0 6 2.7 6 6V735.8c0 3.3-2.7 6-6 6H585.1zM438.9 417.5H160.2c-21.8 0-39.5 17.7-39.5 39.5V735.8c0 21.8 17.7 39.5 39.5 39.5h278.7c21.8 0 39.5-17.7 39.5-39.5v-278.7c0.1-21.8-17.7-39.6-39.5-39.6zM160.2 741.8c-3.3 0-6-2.7-6-6v-278.7c0-3.3 2.7-6 6-6h278.7c3.3 0 6 2.7 6 6V735.8c0 3.3-2.7 6-6 6H160.2zM863.8-7.3H585.1c-21.8 0-39.5 17.7-39.5 39.5V310.9c0 21.8 17.7 39.5 39.5 39.5h278.7c21.8 0 39.5-17.7 39.5-39.5v-278.7c0-21.8-17.7-39.5-39.5-39.5zM585.1 316.9c-3.3 0-6-2.7-6-6v-278.7c0-3.3 2.7-6 6-6h278.7c3.3 0 6 2.7 6 6V310.9c0 3.3-2.7 6-6 6H585.1zM438.9-7.3H160.2c-21.8 0-39.5 17.7-39.5 39.5V310.9c0 21.8 17.7 39.5 39.5 39.5h278.7c21.8 0 39.5-17.7 39.5-39.5v-278.7c0.1-21.8-17.7-39.5-39.5-39.5zM160.2 316.9c-3.3 0-6-2.7-6-6v-278.7c0-3.3 2.7-6 6-6h278.7c3.3 0 6 2.7 6 6V310.9c0 3.3-2.7 6-6 6H160.2z"  horiz-adv-x="1024" />

    
    <glyph glyph-name="dianjieshuiji-" unicode="&#59020;" d="M679.6 358.4c0-23.4-4.4-45.3-13.1-65.6-8.7-20.3-20.7-38.2-35.9-53.4-15.3-15.3-33.1-27.2-53.4-35.9-20.3-8.7-42.2-13.1-65.6-13.1-23.4 0-45.2 4.4-65.5 13.1-20.4 8.7-38.2 20.7-53.5 35.9-15.3 15.3-27.2 33.1-35.9 53.4-8.7 20.3-13 42.3-13 65.6 0 23.4 4.4 45.2 13 65.6 8.7 20.3 20.7 38.2 35.9 53.4 15.3 15.3 33.1 27.3 53.5 35.9 20.3 8.7 42.2 13.1 65.5 13.1 23.4 0 45.2-4.4 65.6-13.1 20.3-8.7 38.2-20.7 53.4-35.9 15.3-15.3 27.3-33.1 35.9-53.4 8.7-20.4 13.1-42.3 13.1-65.6z m56.6-331.6c0-6.6-2.7-12.6-8.1-18-5.4-5.4-12.3-10.1-20.7-13.9-8.4-4-18.2-7-29.6-9.4-11.4-2.5-22.8-3.6-34.2-3.6H373.1c-10.2 0-20.4 1.2-30.6 3.6-10.2 2.4-19.3 5.5-27.4 9.4-8.1 3.9-14.6 8.5-19.7 13.9-5.1 5.5-7.6 11.4-7.6 18h448.4z m8.1 759.3c25.7 0 44.5-7.5 56.2-22.5 11.6-15 17.5-32.9 17.5-53.9v-577c0-21-7.5-39-22.5-53.9-15-15-33.9-22.5-56.6-22.5H284.2c-23.4 0-42.3 7.5-56.6 22.5-14.4 15-21.5 32.9-21.5 53.9v577c0 21 6.6 38.8 19.8 53.4 13.1 14.7 31.1 22.1 53.8 22.1l464.6 0.9zM266.2 681c0-6.6 2.3-12.7 6.7-18.4 4.5-5.7 11.9-8.6 22-8.6h68.2c10.2 0 17.7 3.4 22.5 10.3 4.8 6.9 7.2 13.6 7.2 20.2V698c0 6.6-2.7 12.6-8.1 18-5.4 5.4-12.9 8.1-22.5 8.1h-65.6c-10.1 0-17.8-2.8-22.9-8.6-5.1-5.7-7.7-11.9-7.7-18.4l0.2-16.1z m245.3-547.3c31.1 0 60.4 5.9 87.6 17.5 27.2 11.7 51.1 27.7 71.4 48.1 20.3 20.3 36.4 44.2 48.1 71.4 11.6 27.2 17.5 56.4 17.5 87.6 0 30.6-5.9 59.5-17.5 86.7-11.7 27.2-27.7 51.1-48.1 71.4-20.3 20.3-44.2 36.4-71.4 48.1-27.2 11.7-56.4 17.5-87.6 17.5-30.6 0-59.5-5.9-86.7-17.5-27.3-11.7-51.1-27.7-71.5-48.1-20.3-20.3-36.3-44.2-48.1-71.4-11.6-27.2-17.5-56.1-17.5-86.7 0-31.2 5.9-60.3 17.5-87.6 11.7-27.3 27.7-51.1 48.1-71.4 20.3-20.4 44.2-36.4 71.5-48.1 27.3-11.6 56.2-17.5 86.7-17.5z m0 0"  horiz-adv-x="1024" />

    
    <glyph glyph-name="yundongjianshen-" unicode="&#59021;" d="M174.4 541.6h-41.2c-16.8 0-30.3-13.6-30.3-30.3v-85.6H88.2c-13.7 0-24.9-11.1-24.9-24.9v-33.7c0-13.7 11.1-24.9 24.9-24.9h14.7v-85.6c0-16.8 13.6-30.3 30.3-30.3h41.2c16.8 0 30.3 13.6 30.3 30.3V511.3c0.1 16.8-13.5 30.3-30.3 30.3zM301.3 650.9h-41.2c-16.8 0-30.3-13.6-30.3-30.3v-473.1c0-16.8 13.6-30.3 30.3-30.3h41.2c16.8 0 30.3 13.6 30.3 30.3V620.6c0.1 16.7-13.5 30.3-30.3 30.3zM360.7 416.3h302.6v-64.6H360.7zM763.9 650.9h-41.2c-16.8 0-30.3-13.6-30.3-30.3v-473.1c0-16.8 13.6-30.3 30.3-30.3h41.2c16.8 0 30.3 13.6 30.3 30.3V620.6c0 16.7-13.6 30.3-30.3 30.3zM935.8 425.7h-14.7v85.6c0 16.8-13.6 30.3-30.3 30.3h-41.2c-16.8 0-30.3-13.6-30.3-30.3v-254.6c0-16.8 13.6-30.3 30.3-30.3h41.2c16.8 0 30.3 13.6 30.3 30.3v85.6h14.7c13.7 0 24.9 11.1 24.9 24.9v33.7c0 13.7-11.2 24.8-24.9 24.8z"  horiz-adv-x="1024" />

    
    <glyph glyph-name="gerenhuli-" unicode="&#59022;" d="M667.4 479.6c-37.8 0-68.5-23.1-68.5-51.6 0-28.4 30.7-51.6 68.5-51.6s68.5 23.1 68.5 51.6-30.7 51.6-68.5 51.6zM448.6 172.5c10.4-4.8 32.5-10.3 63.4-10.3s52.9 5.6 63.4 10.3c-10.4 4.8-32.5 10.3-63.4 10.3-30.9 0.1-53-5.5-63.4-10.3zM356.6 479.6c-37.8 0-68.5-23.1-68.5-51.6 0-28.4 30.7-51.6 68.5-51.6s68.5 23.1 68.5 51.6-30.8 51.6-68.5 51.6zM802.8 658s-97 127-289.4 126.9C322.1 784.9 221.2 658 221.2 658c-105.4-115.5-73.5-336.5-24.6-448.1C258.9 67.8 397.8-16 510.3-16.9c98.9-0.8 254.8 84.7 317 226.8 49 111.6 80.8 332.6-24.5 448.1zM252.7 428c0 47.9 46.6 86.9 103.9 86.9 57.3 0 103.9-39 103.9-86.9s-46.6-86.9-103.9-86.9c-57.3 0-103.9 39-103.9 86.9zM512 126.8c-47.9 0-103.9 12-103.9 45.7S464 218.2 512 218.2c47.9 0 103.9-12 103.9-45.7-0.1-33.7-56-45.7-103.9-45.7z m155.4 214.3c-57.3 0-103.9 39-103.9 86.9s46.6 87 103.9 87c57.3 0 103.9-39 103.9-86.9s-46.6-87-103.9-87z"  horiz-adv-x="1024" />

    
    <glyph glyph-name="baojianjiankang-" unicode="&#59023;" d="M759.5 508.9L658 628c41.4 5.7 72.9 42.4 69.6 86.2-3.3 42.6-40.9 74.6-83.6 74.6H380.2c-43.3 0-81.2-32.6-83.9-75.8-2.7-44.3 30.2-81 72.7-85.3L267.3 518.8c-16.1-17.3-25.1-40-25.1-63.7v-367.9c0-59.6 48.3-107.9 107.9-107.9h323.8c59.6 0 107.9 48.3 107.9 107.9V448.4c0 22.2-7.9 43.6-22.3 60.5zM350.1 707.8c0 14.9 12.1 27 27 27h269.8c14.9 0 27-12.1 27-27s-12.1-27-27-27H377.1c-14.9 0-27 12.1-27 27z m377.8-431.7v-115.8c0-10.6-8.6-19.1-19.1-19.1H531.1c-10.6 0-19.1 8.6-19.1 19.1V391.9c0 10.6 8.6 19.1 19.1 19.1h177.6c10.6 0 19.1-8.6 19.1-19.1v-115.8zM706.3 304.3h-44v44.2c0 4.6-3.8 8.4-8.4 8.4h-33.8c-4.6 0-8.4-3.8-8.4-8.4v-44.2h-44c-4.7 0-8.6-3.8-8.6-8.6v-33.5c0-4.7 3.8-8.6 8.6-8.6h44v-44.2c0-4.6 3.8-8.4 8.4-8.4h33.8c4.6 0 8.4 3.8 8.4 8.4v44.2h44c4.7 0 8.6 3.8 8.6 8.6v33.5c0 4.7-3.9 8.6-8.6 8.6z"  horiz-adv-x="1024" />

    
    <glyph glyph-name="youjishipin-" unicode="&#59024;" d="M513.7 410.8c-11.7 0-21.8-10.1-21.8-21.8v-385.4c0-11.7 10.1-21.8 21.8-21.8 11.7 0 21.8 10.1 21.8 21.8V389c0 11.8-10.1 21.8-21.8 21.8zM310.9 244.9c-31.8 0-55.3-5-55.3-5s-23.5-112.3 31.8-167.6c30.2-30.2 75.4-36.9 112.3-36.9 31.8 0 55.3 5 55.3 5s23.5 112.3-31.8 167.6c-30.2 30.2-77.1 36.9-112.3 36.9zM396.4 271.7c31.8 0 55.3 5 55.3 5s23.5 112.3-31.8 167.6c-13.4 15.1-35.2 25.1-57 30.2V769.4c0 8.4-6.7 16.8-16.7 16.8s-16.8-6.7-16.8-16.8v-289.9c-6.7 0-13.4 1.7-20.1 1.7h-11.7V673.9c0 8.4-6.7 16.8-16.7 16.8-10.1 0-16.8-6.7-16.8-16.8v-196c-6.7-1.7-11.7-1.7-11.7-1.7s-23.5-112.3 31.8-167.6c30.1-30.2 75.3-36.9 112.2-36.9zM513.7 734.2s-85.5-60.3-85.5-134 85.5-134 85.5-134 85.5 60.3 85.5 134-85.5 134-85.5 134zM627.6 271.7c36.9 0 82.1 6.7 112.3 36.9 55.3 55.3 31.8 167.6 31.8 167.6s-5 1.7-13.4 1.7v196c0 8.4-6.7 16.8-16.8 16.8-8.4 0-16.8-6.7-16.8-16.8v-192.7h-10.1c-6.7 0-15.1 0-21.8-1.7V769.4c0 8.4-6.7 16.8-16.8 16.8-8.4 0-16.8-6.7-16.8-16.8v-296.6c-21.8-5-41.9-15.1-58.6-30.2-51.9-53.6-28.5-165.9-28.5-165.9s23.7-5 55.5-5zM716.4 244.9c-36.9 0-82.1-6.7-112.3-36.9-55.3-55.3-31.8-167.6-31.8-167.6s23.5-5 55.3-5c36.9 0 82.1 6.7 112.3 36.9 55.3 55.3 31.8 167.6 31.8 167.6s-25.1 5-55.3 5z"  horiz-adv-x="1024" />

    
    <glyph glyph-name="tuiguangyongjin-" unicode="&#59025;" d="M555.9 495.9L863.7 803.8h-83.9L515.9 539.9 276 803.8h-84l279.9-307.9H189.7V440h295.8v-140H189.7v-55.9h295.8v-279.9h55.9V244.1h290.8V300H541.4V440h290.8v55.9H555.9z"  horiz-adv-x="1024" />

    
    <glyph glyph-name="wodehaibao-" unicode="&#59026;" d="M400 775.8H204.1c-44.3 0-83.7-39.8-84-84v-195.9c0-43.2 44.1-84 84-84H400c37.5 2.4 77.9 47.6 84 84v196c-0.3 42.4-42.1 81.3-84 83.9z m28-251.9c0-23.4-32.6-56-56-56H232c-23.4 0-56 32.6-56 56v140c0 23.4 32.6 56 56 56h140c23.4 0 56-32.6 56-56v-140z m167.9-335.8c-14.2 0-28-14.2-28-28v-139.9c0-13.8 13.8-28 28-28 14.3 0 28 14.2 28 28V160.1c0 13.8-13.8 28-28 28z m0 167.9c-14.2 0-28-14.2-28-28v-56c0-13.7 13.8-28 28-28 14.3 0 28 14.2 28 28v56c0 13.8-13.8 28-28 28z m-112 139.9c0-2.3 0.8 2.2 0 0z m-363.8 0c-0.3 2.3 0-2.3 0 0z m615.7-363.8c-14.2 0-28-14.3-28-28v-84c0-13.8 13.8-28 28-28s28 14.2 28 28v84c0 13.8-13.8 28-28 28zM875.7 328c-14.2 0-28-14.2-28-28l4-64c0-13.7 9.8-19.9 24-19.9 14.3 0 28 14.3 28 28v56c0 13.7-13.7 27.9-28 27.9z m0-167.9c-14.2 0-28-14.3-28-28v-111.9c0-13.7 13.8-28 28-28 14.3 0 28 14.2 28 28V132.1c0 13.7-13.7 28-28 28zM735.8 356c-14.2 0-28-14.2-28-28v-139.9c0-13.7 13.8-28.8 28-28 13.8 0.8 25.7 18.3 28 28V328c0 13.8-13.8 28-28 28z m167.9 139.9c0-2.3 0.8 2.2 0 0z m-83.9 279.9H623.9c-44.3 0-83.7-39.8-84-84v-195.9c0-43.2 44.1-84 84-84h195.9c37.5 2.4 77.9 47.6 84 84v196c-0.3 42.4-42.1 81.3-84 83.9z m28-251.9c0-23.4-32.6-56-56-56h-140c-23.4 0-56 32.6-56 56v140c0 23.4 32.6 56 56 56h139.9c23.4 0 56-32.6 56-56v-140z m-307.9-28c-0.3 2.3 0-2.3 0 0z m-56-419.8c0-2.3 0.8 2.2 0 0zM400 356H204.1c-44.3 0-83.7-39.8-84-84v-195.9c0-43.2 44.1-84 84-84H400c37.5 2.4 77.9 47.6 84 84v196c-0.3 42.4-42.1 81.3-84 83.9z m28-251.9c0-23.4-32.6-56-56-56H232c-23.4 0-56 32.6-56 56v140c0 23.4 32.6 56 56 56h140c23.4 0 56-32.6 56-56v-140z m-307.9-28c-0.3 2.3 0-2.3 0 0z"  horiz-adv-x="1024" />

    
    <glyph glyph-name="tuiguangdingdan-" unicode="&#59027;" d="M791.9-77.79999999999995H232.2c-51.8 0-84 32.2-84 84V649.9h167.9c20.9 0 28 7.1 28 28V845.8h447.8c51.7 0 83.9-32.2 84-83.9v-755.7c0-51.8-32.2-84-84-84zM204.2 593.9v-587.7c0-20.9 7.1-28 28-28h559.7c20.7 0 28 7.3 28 28V761.8c-0.1 20.7-7.4 28-28 28H400.1v-111.9c0-51.8-32.2-84-84-84H204.2zM707.9 174.10000000000002H316.1c-18.1 0-28 9.9-28 28s9.9 28 28 28h391.8c17.9-0.7 26.7-13.7 28-28 0-18.1-9.9-28-28-28zM707.9 314H316.1c-18.1 0-28 9.9-28 28s9.9 28 28 28h391.8c18.1 0 28-9.9 28-28s-9.9-28-28-28zM707.9 454H540c-18.1 0-28 9.9-28 28s9.9 28 28 28h167.9c18.1 0 28-9.9 28-28s-9.9-28-28-28z"  horiz-adv-x="1024" />

    
    <glyph glyph-name="yongjinmingxi-" unicode="&#59028;" d="M763.9 300H372.1L512 160.10000000000002h-84L288.1 300v56h475.8v-56z m0 112H288.1v56h391.8L540 607.9h84L763.9 468v-56zM512-91.79999999999995c-64.2 0-126.5 12.6-185.2 37.4-56.7 24-107.5 58.3-151.2 102-43.7 43.7-78 94.6-102 151.2-24.8 58.7-37.4 121-37.4 185.2s12.6 126.5 37.4 185.2c24 56.7 58.3 107.5 102 151.2 43.7 43.7 94.6 78 151.2 102 58.7 24.8 121 37.4 185.2 37.4s126.5-12.6 185.2-37.4c56.7-24 107.5-58.3 151.2-102 43.7-43.7 78-94.6 102-151.2 24.8-58.7 37.4-121 37.4-185.2s-12.6-126.5-37.4-185.2c-24-56.7-58.3-107.5-102-151.2s-94.6-78-151.2-102c-58.7-24.8-121-37.4-185.2-37.4z m0 895.6C280.5 803.8 92.2 615.5 92.2 384S280.5-35.799999999999955 512-35.799999999999955 931.8 152.5 931.8 384 743.5 803.8 512 803.8z"  horiz-adv-x="1024" />

    
    <glyph glyph-name="gouxuan-" unicode="&#59029;" d="M425 217.1c13-13 33.8-13 46.8 0l288.3 287c13 13 13 33.8 0 46.8s-33.8 13-46.8 0L448.4 287.2 310.7 424.9c-13 13-33.8 13-46.8 0s-13-33.8 0-46.8l161.1-161z"  horiz-adv-x="1024" />

    
    <glyph glyph-name="tishi-" unicode="&#59030;" d="M511.7 745.5c-199.5 0-361.2-161.7-361.2-361.2S312.2 23 511.7 23s361.2 161.7 361.2 361.2-161.7 361.3-361.2 361.3z m0-561.9c-22.2 0-40.2 18-40.2 40.2 0 22.2 18 40.2 40.2 40.2 22.2 0 40.2-18 40.2-40.2-0.1-22.2-18-40.2-40.2-40.2zM550 344.3c-1.4-20.6-17.4-37.2-37.9-39.4 1.4-0.1 2.7-0.8 4.2-0.8H508c1.4 0 2.7 0.7 4.1 0.8-20.5 2.1-36.5 18.8-37.5 39.4l-9.2 200.5c-0.6 10.5 3.3 20.8 10.6 28.5s17.4 11.9 28 11.8h18.5c10.6 0.2 20.7-4 28-11.7 7.3-7.7 11-18 10.2-28.6L550 344.3z m0 0"  horiz-adv-x="1024" />

    
    <glyph glyph-name="yaoqingma-" unicode="&#59031;" d="M901.2 435.9c0 0.8-0.1 1.6-0.2 2.4-5.8 42.1-41.9 73.8-83.9 73.8l-20.5-0.7V700.1c0 40.4-32.7 73.4-72.9 73.4H300.2c-40.2 0-72.9-32.9-72.9-73.4v-187.7l-20.5-0.3c-42.2 0-80.5-33.4-83.7-73.9l-1.3-44.4v-313.7c0-47.2 38.1-85.5 85-85.5h610.3c46.9 0 85 38.4 85 85.5V395.9v0.2 0.3l-0.9 39.5z m-104.5 33.5l20.5 0.7c20.8 0 38.6-15.6 42-36.4l0.5-25.2-63-33.3v94.2z m-527.2 16.7c0.5 1.9 0.8 4 0.8 6.1 0 1.8-0.3 3.6-0.8 5.3V700.1c0 17.2 13.8 31.2 30.8 31.2h423.6c17 0 30.8-14 30.8-31.2v-347.3L509.4 223.3l-240 126.8v136zM165.2 436c1.4 17.8 21.3 34.1 41.7 34.1l20.5 0.2v-97.9l-63 33.3 0.8 30.3zM860 80c0-23.9-19.2-43.4-42.8-43.4H206.9c-23.6 0-42.8 19.5-42.8 43.4V358.2l335.6-177.4c6.2-3.2 13.5-3.2 19.7 0L860 360.9V80zM526.5 348.9l133.1 126 0.8 0.8c20.1 21.1 31.2 49 31.2 78.5 0 62.1-49.6 112.7-110.5 112.7-25.4 0-49.7-8.8-69-24.7-19.4 15.9-43.6 24.7-69 24.7-60.9 0-110.5-50.6-110.5-112.7 0-33.7 14.6-65.4 39.2-86.1L497.7 349c4.1-3.8 9.3-5.8 14.5-5.8s10.2 1.9 14.3 5.7zM399.7 499.4c-16 13.5-25.1 33.5-25.1 54.8 0 38.9 30.7 70.6 68.4 70.6 20.4 0 39.6-9.3 52.6-25.5 4-5 10-7.9 16.4-7.9s12.4 2.9 16.4 7.9c13 16.2 32.2 25.5 52.6 25.5 37.7 0 68.4-31.7 68.4-70.6 0-18.5-6.8-35.9-19.2-49L512 393.2 399.7 499.4z"  horiz-adv-x="1024" />

    
    <glyph glyph-name="xingming-" unicode="&#59032;" d="M937.1-37.9l-1.7 7.1c-0.9 3.7-1.7 7.1-2.5 11.7-3.7 19.2-7.3 36.9-14.9 58.3-39.2 111.5-111.9 194.3-216.4 246.7 57.1 45.2 96.3 111 109.4 185.5 16.7 94.8-10.7 191.7-73.3 259.2-59.6 64.5-139.2 100.4-224 100.9h-2.1c-83.3 0-161.8-34.2-221-96.3-57.3-60.1-85.3-132.4-82.9-215 1.8-57.6 16.9-109.4 44.9-153.9 18.3-29.2 42.4-55.8 71.8-79.4-71.5-35.1-129.9-87-173.7-154.6-33.6-51.8-57.3-101-64.1-172.9-1.1-11.6 7.4-21.9 19-22.9 11.4-1.1 21.8 7.4 22.9 19 5.2 55.7 20.8 97.4 57.4 153.9 44.7 68.9 106.1 119.8 181.7 150.9 1.7 0.6 3.2 1.3 6.3 2.6 7.3 2.9 12.3 9.6 13.1 17.4 0.8 7.8-2.8 15.4-9.3 19.7-38.4 25.4-68.5 55.2-89.5 88.7-24 38.1-36.9 82.8-38.4 132.7-2 70.9 22 133 71.3 184.7 51.2 53.7 118.8 83.3 190.6 83.3h1.8c73.1-0.5 141.7-31.5 193.4-87.4 53.7-57.9 77.2-141.4 62.7-223.3-13.3-75.5-57.4-140.6-121.2-178.5a21.02 21.02 0 0 1-10.2-19.9c0.7-8 5.9-15 13.4-17.9l6.2-2.6C765.7 213.5 840 134.5 878.5 25.1c6.6-18.7 9.8-34.1 13.2-51.9 0.9-5.3 1.9-9.5 3-14l1.5-6.4c2.2-9.8 10.9-16.5 20.5-16.5 1.5 0 3.1 0.2 4.6 0.5 11.2 2.7 18.3 14 15.8 25.3z"  horiz-adv-x="1024" />

    
    <glyph glyph-name="shoujihao-" unicode="&#59033;" d="M726.3 830.2H297.7c-47.7 0-86.5-38.8-86.5-86.5v-719.4c0-47.7 38.8-86.5 86.5-86.5h428.7c47.7 0 86.5 38.8 86.5 86.5V743.7c-0.1 47.7-38.9 86.5-86.6 86.5z m44.4-805.9c0-24.5-19.9-44.3-44.3-44.3H297.7c-24.5 0-44.3 19.9-44.3 44.3V183.6h517.4v-159.3z m0 201.5H253.3V743.7c0 24.5 19.9 44.3 44.3 44.3h428.7c24.5 0 44.3-19.9 44.3-44.3v-517.9zM512 40.5c23.9 0 43.3 19.4 43.3 43.3s-19.4 43.3-43.3 43.3-43.3-19.4-43.3-43.3c0-23.8 19.4-43.3 43.3-43.3z"  horiz-adv-x="1024" />

    
    <glyph glyph-name="yanzhengma-" unicode="&#59034;" d="M863.8 680.9h-0.1c-1.9 0.2-192.7 19.7-325.3 116-15.4 11.1-37.3 11.1-52.8-0.1-132-95.8-323.3-115.8-325.2-116-23.2-2.1-40.7-21.4-40.7-44.7 0-5.6 0.5-137.7 45.4-285.5 26.8-88.4 64-164.1 110.4-225 59.7-78.4 134.7-132.5 223.1-160.9 4.5-1.4 9-2.1 13.5-2.1 4.6 0 9.1 0.7 13.7 2.1C614-7 689 47.1 748.6 125.5c46.5 61 83.7 136.7 110.4 225 44.8 148.1 45.4 279.9 45.4 285.3 0 23.5-17.4 42.8-40.6 45.1z m-45.2-318c-25.3-83.4-60.1-154.7-103.6-211.7-54.3-71.4-122.3-120.6-203.8-146.2-79.8 25.6-147.8 74.8-202.2 146.2-43.4 56.9-78.2 128.1-103.6 211.7-43.1 141.9-43.5 268-43.5 273.3 0 1.5 1 2.7 2.3 2.8 2 0.2 205.1 21.3 346.3 123.8l-12.4 17 15.7-17C652.3 662.2 850.6 639.9 859.7 639c1.5-0.2 2.5-1.2 2.5-2.8 0-5.3-0.5-131.2-43.6-273.3zM674 508.6L456.9 303.8l-107 100.3c-8.5 8-21.8 7.5-29.8-1s-7.5-21.8 1-29.8l121.4-113.9c4.1-3.8 9.2-5.7 14.4-5.7 5.2 0 10.4 1.9 14.5 5.7l231.5 218.3c8.5 8 8.8 21.3 0.9 29.8-8 8.7-21.3 9.1-29.8 1.1z"  horiz-adv-x="1024" />

    
    <glyph glyph-name="paihang-" unicode="&#59035;" d="M824.242424 449.551515h-127.482828c-9.955556 0-19.781818-1.939394-28.961616-5.559596V702.060606c-0.258586 43.830303-43.442424 84.040404-86.626263 86.755556H448c-45.769697 0-86.367677-41.115152-86.626263-86.884849v-101.624242c-9.179798 4.008081-18.876768 6.464646-28.444444 7.111111H199.757576c-45.769697 0-86.367677-41.115152-86.626263-86.884849v-542.254545h797.737374V362.79596c-0.258586 43.830303-43.442424 84.040404-86.626263 86.755555zM303.967677 36.072727h-75.377778l-57.793939 0.517172V491.571717c0 24.177778 33.616162 57.923232 57.793939 57.923232h75.377778c22.626263 0 53.527273-29.608081 57.40606-53.268686v-459.636364l-57.40606-0.517172z m306.036363 0.517172l-57.793939-0.517172h-75.377778l-57.276767 0.517172V520.533333c0 2.585859-0.258586 5.042424-0.517172 7.628283V673.09899c0 24.177778 33.616162 57.923232 57.793939 57.923232h75.377778c24.177778 0 57.793939-33.745455 57.793939-57.923232v-636.509091z m243.070707 0l-57.793939-0.517172h-69.818182l-57.793939 0.517172V334.99798c1.034343 24.048485 34.00404 56.759596 57.793939 56.759596h69.818182c24.177778 0 57.793939-33.745455 57.793939-57.923233v-297.244444zM102.787879 65.034343c-0.387879 2.456566 0-2.327273 0 0z"  horiz-adv-x="1024" />

    
    <glyph glyph-name="erweima-" unicode="&#59036;" d="M444.9 358.7H129.7c-23 0-41.7-18.7-41.7-41.8v-315.2c0-23 18.7-41.8 41.7-41.8h315.1c23 0 41.7 18.7 41.7 41.8V316.9c0.1 23.1-18.6 41.8-41.6 41.8z m4.1-356.9c0-2.3-1.8-4.1-4.1-4.1H129.7c-2.3 0-4.1 1.8-4.1 4.1V316.9c0 2.3 1.8 4.1 4.1 4.1h315.1c2.3 0 4.1-1.8 4.1-4.1v-315.1zM891.3 347.7c-10.4 0-18.8-8.4-18.8-18.8V148c0-2.3-1.8-4.1-4.1-4.1h-151c-2.3 0-4.1 1.8-4.1 4.1V279.3c0 23-18.7 41.8-41.7 41.8h-66.9c-23 0-41.7-18.7-41.7-41.8v-276.6c0-10.4 8.4-18.8 18.8-18.8s18.8 8.4 18.8 18.8V279.3c0 2.3 1.8 4.1 4.1 4.1h66.9c2.3 0 4.1-1.8 4.1-4.1V148c0-23 18.7-41.7 41.8-41.7h151c23 0 41.8 18.7 41.8 41.7V328.9c-0.1 10.4-8.6 18.8-19 18.8zM891.3 45.6h-202c-10.4 0-18.8-8.4-18.8-18.8S679 8 689.4 8h202c10.4 0 18.8 8.4 18.8 18.8s-8.5 18.8-18.9 18.8zM327.4 703.6h-80.1c-30.3 0-55-24.7-55-55v-80.1c0-30.3 24.7-55 55-55h80.1c30.3 0 55 24.7 55 55v80.1c0 30.3-24.7 55-55 55z m17.3-135.1c0-9.6-7.8-17.3-17.3-17.3h-80.1c-9.6 0-17.3 7.8-17.3 17.3v80.1c0 9.6 7.8 17.3 17.3 17.3h80.1c9.6 0 17.3-7.8 17.3-17.3v-80.1zM776.6 703.6h-80.1c-30.3 0-55-24.7-55-55v-80.1c0-30.3 24.7-55 55-55h80.1c30.3 0 55 24.7 55 55v80.1c0 30.3-24.6 55-55 55zM794 568.5c0-9.6-7.8-17.3-17.3-17.3h-80.1c-9.6 0-17.3 7.8-17.3 17.3v80.1c0 9.6 7.8 17.3 17.3 17.3h80.1c9.6 0 17.3-7.8 17.3-17.3v-80.1zM327.4 254.4h-80.1c-30.3 0-55-24.7-55-55v-80.1c0-30.3 24.7-55 55-55h80.1c30.3 0 55 24.7 55 55v80.1c0 30.3-24.7 55-55 55z m17.3-135.1c0-9.6-7.8-17.3-17.3-17.3h-80.1c-9.6 0-17.3 7.8-17.3 17.3v80.1c0 9.6 7.8 17.3 17.3 17.3h80.1c9.6 0 17.3-7.8 17.3-17.3v-80.1zM444.9 808H129.7c-23 0-41.7-18.7-41.7-41.7v-315.4c0-23 18.7-41.7 41.7-41.7h315.2c23 0 41.8 18.7 41.8 41.7V766.3c0 23-18.7 41.7-41.8 41.7z m4.1-357.1c0-2.3-1.8-4.1-4.1-4.1H129.7c-2.3 0-4.1 1.8-4.1 4.1V766.3c0 2.3 1.8 4.1 4.1 4.1h315.2c2.3 0 4.1-1.8 4.1-4.1v-315.4zM935.8 766.2c0 23-18.7 41.8-41.8 41.8H578.9c-23 0-41.8-18.7-41.8-41.7v-315.4c0-23 18.7-41.7 41.8-41.7h315.3c11.2 0 21.6 4.3 29.5 12.2 7.9 7.9 12.2 18.4 12.2 29.5l-0.1 315.3zM897.1 448c-0.5-0.5-1.5-1.2-2.9-1.2H578.9c-2.3 0-4.1 1.8-4.1 4.1V766.3c0 2.3 1.8 4.1 4.1 4.1H894c2.3 0 4.1-1.8 4.1-4.1l0.2-315.3c0-1.5-0.6-2.5-1.2-3z"  horiz-adv-x="1024" />

    
    <glyph glyph-name="yunying-" unicode="&#59037;" d="M798 543.6L599.5 383c-2.1-1.7-5.4-1.9-7.6-0.3L398.2 514.1c-7.2 4.8-16.7 4.2-23.2-1.6L234.3 385.9c-7.7-7-8.4-18.9-1.4-26.6 6.9-7.7 18.9-8.4 26.6-1.4l129.7 116.8 181.5-123.1c7.3-5 15.9-7.6 24.8-7.6 10.1 0 19.9 3.5 27.7 9.8l198.5 160.6c8.1 6.5 9.3 18.4 2.8 26.5-6.5 8-18.4 9.2-26.5 2.7zM884.2 755.7H530.3V800.3c0 10.4-8.4 18.8-18.8 18.8s-18.8-8.4-18.8-18.8v-44.5h-353c-42 0-76.1-34.1-76.1-76.1V208c0-42 34.1-76.1 76.1-76.1h353.4v-18.5L314-17c-8.4-6.1-10.3-17.9-4.1-26.3 3.7-5.1 9.4-7.8 15.2-7.8 3.8 0 7.7 1.2 11.1 3.6l175.9 128 175.9-128c3.3-2.4 7.2-3.6 11.1-3.6 5.8 0 11.6 2.7 15.2 7.8 6.1 8.4 4.3 20.2-4.1 26.3L530.8 113.4v18.5h353.4c42 0 76.1 34.1 76.1 76.1V679.6c0 42-34.1 76.1-76.1 76.1zM922.7 208c0-21.2-17.2-38.4-38.4-38.4H521c-2.7 1.5-5.7 2.6-9 2.6s-6.3-1.1-9-2.6H139.7c-21.2 0-38.4 17.2-38.4 38.4V679.6c0 21.2 17.2 38.4 38.4 38.4h368.8c1-0.2 1.9-0.6 3-0.6 1 0 2 0.4 3 0.6h369.8c21.2 0 38.4-17.2 38.4-38.4V208z"  horiz-adv-x="1024" />

    


  </font>
</defs>
</svg>
